# xmcd CD database file
#
# Track frame offsets:
#	150
#	17065
#	42490
#	60075
#	77487
#	94322
#	110647
#	127712
#	154635
#	167945
#	186185
#	201450
#	216765
#
# Disc length: 3283 seconds
#
# Revision: 2
# Processed by: cddbd v1.4b41PL1 Copyright (c) Steve Scherf et al.
# Submitted via: Feurio! 1.50.2ß - http://www.feurio.com
#
DISCID=aa0cd10d
DTITLE=Nazareth - The Best Of [CD 2)
DYEAR=1900
DGENRE=
TTITLE0=Shanghai'd In Shanghai
TTITLE1=Silver Dollar Forger (Part 1 and 2)
TTITLE2=Love Hurts
TTITLE3=What Ever You Want Babe
TTITLE4=Gone Dead Train
TTITLE5=Big Boy
TTITLE6=Dear John
TTITLE7=Red Light Lady
TTITLE8=If You see Me Baby
TTITLE9=Not Faking It
TTITLE10=Victoria
TTITLE11=I Had A Dream
TTITLE12=Shapes Of Thing (Live)
EXTD=
EXTT0=
EXTT1=
EXTT2=
EXTT3=
EXTT4=
EXTT5=
EXTT6=
EXTT7=
EXTT8=
EXTT9=
EXTT10=
EXTT11=
EXTT12=
PLAYORDER=
